:SAMPLES-PER-SECOND 30
:FULLY-SPECIFIED
:DEGREES
178
root  -79.1621 41.7452 -7.25152 176.348 -87.3888 -176.519
RightUpLeg  -0.334716 -7.44424 -5.56265
RightLeg  2.03043 -1.05995 2.90659
RightFoot  0.354307 -0.0522484 0.542753
RightToes  -1.74624e-010 0 -3.6325e-017
Spine  2.22073 -0.72579 2.10497
Spine1  -0.388173 -0.00763811 -4.1648
HEad  -6.79913 3.93654 2.60436
LeftShoulder1  0.494642 -0.943049 -2.98341
LeftArm  -17.9534 11.91 -2.37802
LeftForeArm  11.4006 -3.57087 -1.32415
LeftHand  -0.244104 0.0205437 5.32207
RightShoulder  0.664077 0.154913 10.9599
RightArm  -14.0172 1.22569 -5.30421
RightForeArm  -1.37181 1.92815 5.73168
RightHand  -0.900161 4.46733 -10.8495
LeftUpLeg  2.47724 5.90434 4.94556
LeftLeg  2.15694 11.1548 -3.15819
LeftFoot  -3.26006 0.077776 -0.914926
LeftToes  1.61887e-010 9.40759e-012 5.52375e-011
179
root  -79.2059 41.745 -7.29161 174.46 -87.6365 -174.521
RightUpLeg  -0.261716 -7.44134 -5.48327
RightLeg  1.90287 -1.30605 2.99326
RightFoot  0.273941 -0.058269 0.634554
RightToes  -1.74624e-010 0 -3.6325e-017
Spine  2.05561 -0.744575 1.94846
Spine1  -0.271405 -0.0630869 -3.97394
HEad  -6.68657 3.93635 2.63713
LeftShoulder1  0.522952 -1.1918 -3.00361
LeftArm  -17.8071 12.0934 -2.27328
LeftForeArm  11.4607 -3.5283 -1.33931
LeftHand  -0.244104 0.0205437 5.32207
RightShoulder  0.650215 0.0511135 11.1133
RightArm  -13.4685 1.60626 -5.52483
RightForeArm  -2.64399 1.38378 5.9858
RightHand  -0.97581 4.61913 -11.5681
LeftUpLeg  2.38968 5.8946 5.04309
LeftLeg  2.15381 10.9061 -3.08143
LeftFoot  -3.26292 0.0859581 -1.04209
LeftToes  1.61887e-010 9.40759e-012 5.52375e-011
180
root  -79.2486 41.7448 -7.32712 170.848 -87.8275 -170.756
RightUpLeg  -0.235794 -7.36189 -5.3089
RightLeg  1.73803 -1.59838 3.04475
RightFoot  0.27363 -0.0571401 0.615899
RightToes  -1.74624e-010 0 -3.6325e-017
Spine  1.89668 -0.740543 1.93916
Spine1  -0.247067 -0.088612 -3.84027
HEad  -6.61016 3.93131 2.69735
LeftShoulder1  0.547099 -1.3537 -3.15044
LeftArm  -17.6371 12.1845 -2.05449
LeftForeArm  11.4149 -3.67698 -1.4077
LeftHand  -0.244104 0.0205437 5.32207
RightShoulder  0.62037 -0.102958 11.0581
RightArm  -13.0782 1.75447 -5.56489
RightForeArm  -3.53952 1.17241 6.16819
RightHand  -1.00944 4.58415 -11.9927
LeftUpLeg  2.21835 5.97919 5.23246
LeftLeg  2.25186 10.603 -3.05718
LeftFoot  -3.32088 0.0911112 -1.12219
LeftToes  1.61887e-010 9.40759e-012 5.52375e-011
181
root  -79.2842 41.7445 -7.36729 166.814 -87.977 -166.628
RightUpLeg  -0.193428 -7.238 -5.10243
RightLeg  1.62373 -1.93207 3.04057
RightFoot  0.267262 -0.0518535 0.533163
RightToes  -1.74624e-010 0 -3.6325e-017
Spine  1.85611 -0.74954 1.86051
Spine1  -0.304515 -0.127186 -3.68675
HEad  -6.39067 3.73423 2.95522
LeftShoulder1  0.539667 -1.26141 -3.21717
LeftArm  -17.6068 11.9793 -1.90052
LeftForeArm  11.7128 -3.79993 -1.45029
LeftHand  -0.244104 0.0205437 5.32207
RightShoulder  0.603294 -0.190712 11.0222
RightArm  -12.6232 1.82136 -5.59791
RightForeArm  -3.81682 1.00794 6.33387
RightHand  -1.05587 4.8521 -12.2129
LeftUpLeg  2.09881 6.09293 5.44545
LeftLeg  2.36993 10.3019 -3.05854
LeftFoot  -3.37832 0.0928992 -1.14998
LeftToes  1.61887e-010 9.40759e-012 5.52375e-011
182
root  -79.3125 41.7442 -7.40677 165.057 -88.0829 -164.812
RightUpLeg  -0.183311 -7.16402 -4.98823
RightLeg  1.60959 -2.15259 3.02001
RightFoot  0.207322 -0.049963 0.503528
RightToes  -1.74624e-010 0 -3.6325e-017
Spine  1.85362 -0.75276 1.66644
Spine1  -0.383004 -0.152472 -3.56506
HEad  -6.03479 3.62254 3.27257
LeftShoulder1  0.518775 -1.12396 -3.08495
LeftArm  -17.6222 11.7306 -1.87266
LeftForeArm  12.0592 -3.78753 -1.46497
LeftHand  -0.244104 0.0205437 5.32207
RightShoulder  0.606019 -0.202725 11.1861
RightArm  -11.9535 2.06757 -5.75576
RightForeArm  -3.99388 0.404399 6.56284
RightHand  -1.18394 5.77556 -12.5729
LeftUpLeg  2.06154 6.16096 5.56823
LeftLeg  2.38421 10.1126 -3.09145
LeftFoot  -3.38195 0.0931797 -1.15434
LeftToes  1.61887e-010 9.40759e-012 5.52375e-011
183
root  -79.3368 41.7439 -7.43422 166.907 -88.1213 -166.578
RightUpLeg  -0.277287 -7.17423 -5.00662
RightLeg  1.70616 -2.16453 3.00347
RightFoot  0.114928 -0.051193 0.522659
RightToes  -1.74624e-010 0 -3.6325e-017
Spine  1.83315 -0.730794 1.43032
Spine1  -0.499448 -0.143609 -3.47067
HEad  -5.71379 3.86648 3.40522
LeftShoulder1  0.514105 -1.14014 -2.92715
LeftArm  -17.6085 11.737 -1.87573
LeftForeArm  12.1541 -3.742 -1.45951
LeftHand  -0.244104 0.0205437 5.32207
RightShoulder  0.613051 -0.196766 11.3845
RightArm  -11.6933 2.26674 -5.86336
RightForeArm  -3.5112 -0.122639 6.61371
RightHand  -1.27874 6.66012 -12.5951
LeftUpLeg  2.06371 6.14551 5.54599
LeftLeg  2.26034 10.1074 -3.14281
LeftFoot  -3.33691 0.0949292 -1.18153
LeftToes  1.61887e-010 9.40759e-012 5.52375e-011
184
root  -79.3567 41.7436 -7.4474 169.468 -88.1144 -169.061
RightUpLeg  -0.39595 -7.21279 -5.0629
RightLeg  1.83712 -2.09244 2.99339
RightFoot  0.0335848 -0.0497038 0.499853
RightToes  -1.74624e-010 0 -3.6325e-017
Spine  1.79861 -0.685705 1.17943
Spine1  -0.546618 -0.147112 -3.17271
HEad  -5.53219 4.22159 3.24832
LeftShoulder1  0.537559 -1.22922 -3.25363
LeftArm  -17.481 11.7676 -1.61357
LeftForeArm  12.016 -3.69153 -1.48742
LeftHand  -0.244104 0.0205437 5.32207
RightShoulder  0.591887 -0.276256 11.1649
RightArm  -12.0114 1.78871 -5.66413
RightForeArm  -1.99881 1.00602 6.43535
RightHand  -1.15772 6.3572 -11.7231
LeftUpLeg  2.06737 6.0824 5.46589
LeftLeg  2.14319 10.191 -3.15303
LeftFoot  -3.30845 0.0985694 -1.23811
LeftToes  1.61887e-010 9.40759e-012 5.52375e-011
185
root  -79.3701 41.7434 -7.45379 169.278 -88.1324 -168.86
RightUpLeg  -0.41093 -7.22205 -5.05556
RightLeg  1.89331 -2.1043 3.00103
RightFoot  -0.0119924 -0.0442117 0.415119
RightToes  -1.74624e-010 0 -3.6325e-017
Spine  1.83114 -0.706871 1.16124
Spine1  -0.574766 -0.170965 -3.15841
HEad  -5.39629 4.30902 3.27193
LeftShoulder1  0.538724 -1.22121 -3.30241
LeftArm  -17.2746 11.747 -1.5818
LeftForeArm  11.8844 -3.60813 -1.56138
LeftHand  -0.244104 0.0205437 5.32207
RightShoulder  0.609357 -0.183273 11.1794
RightArm  -11.9973 1.85975 -5.63752
RightForeArm  -1.01342 0.981318 6.38442
RightHand  -1.11021 6.33388 -11.2723
LeftUpLeg  2.05549 6.05186 5.4582
LeftLeg  2.17704 10.1929 -3.10535
LeftFoot  -3.33704 0.100996 -1.27583
LeftToes  1.61887e-010 9.40759e-012 5.52375e-011
186
root  -79.3786 41.7432 -7.45983 167.172 -88.1882 -166.776
RightUpLeg  -0.344231 -7.21246 -5.00566
RightLeg  1.86292 -2.19039 3.02845
RightFoot  -0.0323413 -0.0405967 0.359669
RightToes  -1.74624e-010 0 -3.6325e-017
Spine  1.84641 -0.737492 1.18413
Spine1  -0.494858 -0.21029 -3.11232
HEad  -5.35001 4.1551 3.28447
LeftShoulder1  0.543753 -1.19767 -3.48568
LeftArm  -17.0306 11.5588 -1.50899
LeftForeArm  11.6259 -3.43924 -1.6651
LeftHand  -0.244104 0.0205437 5.32207
RightShoulder  0.62787 -0.0766857 11.146
RightArm  -10.7916 2.57439 -5.42629
RightForeArm  -6.09282 -0.0339472 7.14145
RightHand  -1.36582 6.56721 -13.5181
LeftUpLeg  2.03147 6.07597 5.52305
LeftLeg  2.28971 10.0963 -3.06224
LeftFoot  -3.38331 0.100775 -1.2724
LeftToes  1.61887e-010 9.40759e-012 5.52375e-011
187
root  -79.3868 41.7432 -7.46541 166.287 -88.2399 -165.881
RightUpLeg  -0.308378 -7.22226 -4.99739
RightLeg  1.82193 -2.24225 3.05583
RightFoot  -0.0525976 -0.0437122 0.40878
RightToes  -1.74624e-010 0 -3.6325e-017
Spine  1.81916 -0.748797 1.15089
Spine1  -0.425006 -0.233318 -3.04303
HEad  -5.32778 4.0285 3.25669
LeftShoulder1  0.552791 -1.21915 -3.64203
LeftArm  -16.8392 11.4284 -1.48687
LeftForeArm  11.3848 -3.2456 -1.73826
LeftHand  -0.244104 0.0205437 5.32207
RightShoulder  0.642177 -0.0030612 11.1744
RightArm  -9.56099 3.25362 -5.41019
RightForeArm  -9.8305 -1.06293 7.82809
RightHand  -1.53478 6.66403 -15.0255
LeftUpLeg  2.01077 6.09502 5.55457
LeftLeg  2.3199 10.0243 -3.06317
LeftFoot  -3.39664 0.101028 -1.27633
LeftToes  1.61887e-010 9.40759e-012 5.52375e-011
188
root  -79.3956 41.7432 -7.46766 167.187 -88.2739 -166.734
RightUpLeg  -0.332832 -7.24959 -5.03691
RightLeg  1.81561 -2.24072 3.06675
RightFoot  -0.0705248 -0.0484414 0.482966
RightToes  -1.74624e-010 0 -3.6325e-017
Spine  1.75849 -0.746134 1.05842
Spine1  -0.383579 -0.244094 -2.957
HEad  -5.32907 4.0126 3.21431
LeftShoulder1  0.558576 -1.24111 -3.71874
LeftArm  -16.6848 11.4016 -1.52492
LeftForeArm  11.3596 -3.05193 -1.7759
LeftHand  -0.244104 0.0205437 5.32207
RightShoulder  0.64393 -0.00347056 11.2082
RightArm  -9.01214 3.75893 -5.45791
RightForeArm  -10.9157 -1.81315 8.12363
RightHand  -1.4854 6.24903 -15.0551
LeftUpLeg  1.9944 6.06757 5.51587
LeftLeg  2.26446 10.0287 -3.07146
LeftFoot  -3.38797 0.103742 -1.31851
LeftToes  1.61887e-010 9.40759e-012 5.52375e-011
